<?xml version="1.0" encoding="utf-8"?>
<!-- Generator: Adobe Illustrator 19.1.0, SVG Export Plug-In . SVG Version: 6.00 Build 0)  -->
<svg version="1.1" id="Layer_1" xmlns="http://www.w3.org/2000/svg" xmlns:xlink="http://www.w3.org/1999/xlink" x="0px" y="0px"
	 viewBox="0 0 370.6 28.7" style="enable-background:new 0 0 370.6 28.7;" xml:space="preserve">
<path d="M225.1,28.4c0.5,0.2,0.9,0.2,1.5,0.2c0.7,0,1.3-0.2,1.7-0.5c0.4-0.3,0.6-0.7,0.6-1.2c0-0.4-0.2-0.8-0.5-1.1
	c-0.3-0.3-0.7-0.5-1.3-0.5c-0.2,0-0.4,0-0.8-0.1c-0.7,0-1.2-0.1-1.4-0.3c-0.1-0.1-0.2-0.1-0.2-0.2c0-0.1-0.1-0.2-0.1-0.3
	c0-0.2,0.1-0.4,0.4-0.6c0.3-0.2,0.6-0.2,1-0.2c0.4,0,0.8,0.1,1.1,0.2c0.4,0.1,0.7,0.3,1,0.6l0.4-0.6c-0.4-0.3-0.8-0.5-1.2-0.6
	c-0.4-0.1-0.9-0.2-1.3-0.2c-0.6,0-1.1,0.1-1.5,0.4c-0.4,0.3-0.6,0.6-0.6,1.1c0,0.2,0.1,0.4,0.2,0.6c0.1,0.2,0.3,0.3,0.6,0.5
	c0.3,0.1,0.9,0.2,1.8,0.3c0.2,0,0.3,0,0.4,0c0.4,0,0.7,0.1,0.9,0.3c0.2,0.2,0.3,0.4,0.3,0.6c0,0.3-0.2,0.6-0.5,0.8
	c-0.3,0.2-0.7,0.3-1.2,0.3c-0.4,0-0.8-0.1-1.2-0.2c-0.4-0.2-0.8-0.4-1.2-0.7l-0.4,0.6C224.2,28.1,224.6,28.3,225.1,28.4 M218.2,27.9
	c0.5-0.5,0.8-1.2,0.8-2c0-0.8-0.3-1.5-0.8-2c-0.5-0.5-1.2-0.8-2-0.8c-0.8,0-1.5,0.3-2,0.8c-0.5,0.5-0.8,1.2-0.8,2
	c0,0.8,0.3,1.5,0.8,2c0.5,0.5,1.2,0.8,2,0.8C217,28.7,217.6,28.4,218.2,27.9 M214.7,27.4c-0.4-0.4-0.6-0.9-0.6-1.6
	c0-0.6,0.2-1.1,0.6-1.6c0.4-0.4,0.9-0.6,1.5-0.6c0.6,0,1.1,0.2,1.5,0.6c0.4,0.4,0.6,0.9,0.6,1.6c0,0.6-0.2,1.1-0.6,1.6
	c-0.4,0.4-0.9,0.6-1.5,0.6C215.6,28.1,215.1,27.9,214.7,27.4 M203.5,23.2v5.3h2.3c0.9,0,1.5-0.2,2-0.7c0.5-0.5,0.8-1.1,0.8-1.9
	c0-0.8-0.3-1.4-0.8-1.9c-0.5-0.5-1.2-0.7-2-0.7H203.5z M207.3,24.4c0.4,0.4,0.6,0.9,0.6,1.5c0,0.6-0.2,1.1-0.6,1.5
	c-0.4,0.4-0.9,0.6-1.5,0.6h-1.6v-4.1h1.6C206.4,23.8,206.9,24,207.3,24.4 M193.4,28.5l0.7-1.4h2.9l0.7,1.4h0.7l-2.6-5.3h-0.5
	l-2.6,5.3H193.4z M195.6,24.1l1.2,2.4h-2.3L195.6,24.1z M186.7,27.8c-0.3,0.2-0.6,0.2-1,0.2c-0.6,0-1.1-0.2-1.5-0.6
	c-0.4-0.4-0.6-0.9-0.6-1.6c0-0.6,0.2-1.1,0.6-1.6c0.4-0.4,0.9-0.6,1.5-0.6c0.4,0,0.7,0.1,1.1,0.3c0.3,0.2,0.6,0.4,0.7,0.7l0.6-0.4
	c-0.3-0.4-0.6-0.7-1-0.9c-0.4-0.2-0.9-0.3-1.3-0.3c-0.8,0-1.5,0.3-2,0.8s-0.8,1.2-0.8,2c0,0.8,0.3,1.5,0.8,2c0.5,0.5,1.2,0.8,2,0.8
	c0.5,0,1-0.1,1.4-0.4c0.4-0.2,0.7-0.6,1-1v-1.6H186v0.6h1.5v0.8C187.3,27.4,187,27.7,186.7,27.8 M177.3,27.9c0.5-0.5,0.8-1.2,0.8-2
	c0-0.8-0.3-1.5-0.8-2c-0.5-0.5-1.2-0.8-2-0.8c-0.8,0-1.5,0.3-2,0.8c-0.5,0.5-0.8,1.2-0.8,2c0,0.8,0.3,1.5,0.8,2
	c0.5,0.5,1.2,0.8,2,0.8C176.1,28.7,176.8,28.4,177.3,27.9 M173.8,27.4c-0.4-0.4-0.6-0.9-0.6-1.6c0-0.6,0.2-1.1,0.6-1.6
	c0.4-0.4,0.9-0.6,1.5-0.6c0.6,0,1.1,0.2,1.5,0.6c0.4,0.4,0.6,0.9,0.6,1.6c0,0.6-0.2,1.1-0.6,1.6c-0.4,0.4-0.9,0.6-1.5,0.6
	C174.7,28.1,174.2,27.9,173.8,27.4 M168.3,23.2h-0.7l-2.1,4.3l-2.1-4.3h-0.7l2.6,5.3h0.4L168.3,23.2z M153.4,23.2v5.3h2.3
	c0.9,0,1.5-0.2,2-0.7c0.5-0.5,0.8-1.1,0.8-1.9c0-0.8-0.3-1.4-0.8-1.9c-0.5-0.5-1.2-0.7-2-0.7H153.4z M157.2,24.4
	c0.4,0.4,0.6,0.9,0.6,1.5c0,0.6-0.2,1.1-0.6,1.5c-0.4,0.4-0.9,0.6-1.5,0.6H154v-4.1h1.6C156.3,23.8,156.8,24,157.2,24.4 M143.3,28.5
	l0.7-1.4h2.9l0.7,1.4h0.7l-2.6-5.3h-0.6l-2.6,5.3H143.3z M145.5,24.1l1.2,2.4h-2.3L145.5,24.1z"/>
<path d="M354.4,4.1h2c0.9,0,1.2,0.1,1.4,1.3h0.3L358,3.7h-6.2V4c1,0,1.3,0.1,1.3,1.1v5.2c0,0.7-0.1,1.1-1.3,1.1v0.3h6.6l0.2-1.9
	h-0.3c-0.3,1.4-0.8,1.5-1.6,1.5h-1.4c-0.8,0-0.8,0-0.8-0.8V7.8h1.8c0.9,0,1,0.1,1.1,1.1h0.4V6.4h-0.4c-0.1,1-0.3,1-0.9,1h-2V4.1z
	 M343.8,3.7V4c1.4,0,1.4,0.2,1.4,1.2v5c0,0.8-0.1,1.1-1.3,1.1v0.3h5.9l0.8-1.9h-0.3c-0.7,1.3-1.1,1.4-2.5,1.4c-0.3,0-0.9,0-1.1-0.1
	c-0.1-0.1-0.1-0.1-0.1-0.5V5.1c0-1,0.1-1,1.5-1.1V3.7H343.8z M338.1,4.7l1.1,3H337L338.1,4.7z M337.7,3.4l0.2,0.5l-2.3,5.8
	c-0.4,1-0.5,1.3-1.5,1.5v0.3h3.1v-0.3c-0.7-0.1-1.3-0.1-1.3-0.7c0-0.5,0.2-1,0.3-1.3l0.4-1.1h2.6l0.6,1.5c0.1,0.3,0.3,0.7,0.3,1
	c0,0.5-0.6,0.5-1.2,0.5v0.3h3.8v-0.3c-0.9-0.1-1-0.2-1.3-1.1L339,3.4H337.7z M330.5,11.9l3.8-9.7c0.4-1.1,0.9-1.6,1.9-1.6V0.3h-4.2
	v0.3c1.2,0,1.7,0.2,1.7,0.8c0,0.3-0.1,0.6-0.3,1.1l-2.9,7.5l-3.3-8.2c-0.3-0.8,0.1-1.2,1.7-1.3V0.3h-5v0.3c1.1,0,1.3,0.3,1.8,1.4
	l4,9.9H330.5z M319.5,14.3c1.2-0.5,2-1.6,2-2.7c0-0.9-0.5-1.5-1.3-1.5c-0.5,0-1,0.4-1,0.9c0,0.5,0.3,0.8,0.8,0.8c0.1,0,0.2,0,0.2,0
	c0.1,0,0.1,0,0.2,0c0.2,0,0.3,0.2,0.3,0.4c0,0.7-0.5,1.3-1.4,1.8L319.5,14.3z M315.8,7.6c0,2.9-1.6,4-3,4c-0.7,0-1.4-0.3-1.9-0.8
	c-0.5-0.5-1-1.3-1-3.3c0-1.9,1-3.7,2.9-3.7C314.4,3.7,315.8,4.8,315.8,7.6 M308.5,7.6c0,3.1,2.4,4.3,4.4,4.3c2,0,4.4-1.2,4.4-4.3
	c0-2.8-2.2-4.2-4.3-4.2C310.9,3.4,308.5,4.7,308.5,7.6 M306.5,3.9h-0.3C306.1,4,306,4,305.8,4c-0.4,0-1.1-0.6-2.5-0.6
	c-2.1,0-4.4,1.6-4.4,4.3c0,2.4,1.6,4.1,4.2,4.1c0.3,0,0.5,0,1.6-0.1c0.4,0,0.6,0,1,0c0.6-0.9,0.7-1.3,1-2h-0.3
	c-0.4,0.5-1.5,1.8-3.2,1.8c-1.3,0-2.9-1.2-2.9-3.7c0-2.2,1.2-4,3-4c1.8,0,2.5,1.3,2.9,2h0.3L306.5,3.9z M287.6,3.7V4
	c0.8,0,1.3,0.1,1.3,1.1v5.1c0,0.8-0.1,1.1-1.3,1.1v0.3h3.4v-0.3c-1.3,0-1.5-0.1-1.5-1.3V5.1l5.9,6.5h0.4V5.1c0-0.7,0.1-1.1,1.3-1.1
	V3.7h-3.3V4c0.1,0,0.7,0,0.8,0c0.6,0.1,0.6,0.5,0.6,1v4.6l-5.4-5.9H287.6z M282.1,4.7l1.1,3H281L282.1,4.7z M281.7,3.4l0.2,0.5
	l-2.3,5.8c-0.4,1-0.5,1.3-1.5,1.5v0.3h3.1v-0.3c-0.7-0.1-1.3-0.1-1.3-0.7c0-0.5,0.2-1,0.3-1.3l0.4-1.1h2.6l0.6,1.5
	c0.1,0.3,0.3,0.7,0.3,1c0,0.5-0.6,0.5-1.2,0.5v0.3h3.8v-0.3c-0.9-0.1-1-0.2-1.3-1.1L283,3.4H281.7z M272.7,4c0.2,0,0.5,0,0.8,0
	c0.8,0,2,0.4,2,2c0,1.5-1,1.9-1.9,1.9h-0.8V4z M272.7,8.2h1.2c0.2,0.3,0.9,1.7,1.2,2c0.8,1.2,1.5,1.5,2.8,1.6v-0.3
	c-0.7-0.1-1-0.4-1.6-1.6c-0.7-1.4-0.8-1.5-1.1-1.8c0.6-0.2,1.7-0.6,1.7-2.1c0-1.9-1.9-2.3-3.5-2.3c-1.3,0-2.4,0.1-3.2,0.2v0.3
	c0.9,0.1,1,0.1,1.2,0.3c0.1,0.2,0.1,0.5,0.1,0.7v5.2c0,0.7-0.1,1.1-1,1.1h-0.3v0.3h4v-0.3h-0.5c-0.8,0-0.9-0.2-0.9-1.3V8.2z
	 M267.9,4h-0.3c-0.1,0.8-0.4,1.2-1.1,1.2h-3.6V0.9h3.5c1.1,0,1.5,0.4,1.5,1.5h0.3V0.3h-8.2v0.3c1.3,0,1.4,0.5,1.4,1.7v7.2
	c0,1.5-0.2,1.7-1.3,1.8v0.3h4.4v-0.3c-1.4,0-1.6-0.4-1.6-1.4v-4h3.4c0.9,0,1.3,0.3,1.3,1.4h0.3V4z M251.7,14.3c1.2-0.5,2-1.6,2-2.7
	c0-0.9-0.5-1.5-1.3-1.5c-0.5,0-1,0.4-1,0.9c0,0.5,0.3,0.8,0.8,0.8c0.1,0,0.2,0,0.2,0c0.1,0,0.1,0,0.2,0c0.2,0,0.3,0.2,0.3,0.4
	c0,0.7-0.5,1.3-1.4,1.8L251.7,14.3z M248.1,7.6c0,2.9-1.6,4-3,4c-0.7,0-1.4-0.3-1.9-0.8c-0.5-0.5-1-1.3-1-3.3c0-1.9,1-3.7,2.9-3.7
	C246.7,3.7,248.1,4.8,248.1,7.6 M240.8,7.6c0,3.1,2.4,4.3,4.4,4.3c2,0,4.4-1.2,4.4-4.3c0-2.8-2.2-4.2-4.3-4.2
	C243.1,3.4,240.8,4.7,240.8,7.6 M233.3,2.2c0-0.3,0.1-1.1,0.9-1.1c0.3,0,0.4,0.1,1,0.5c0.7,0.5,0.9,0.6,1.4,0.6c0.7,0,1.5-0.6,1.4-2
	h-0.2c0,0.3-0.1,1.1-0.8,1.1c-0.3,0-0.4-0.1-1.1-0.5c-0.6-0.4-0.9-0.6-1.4-0.6c-0.5,0-0.9,0.3-1.2,0.7c-0.2,0.4-0.3,1.1-0.3,1.4
	H233.3z M235.3,4.7l1.1,3h-2.2L235.3,4.7z M234.8,3.4L235,4l-2.3,5.8c-0.4,1-0.5,1.3-1.5,1.5v0.3h3.1v-0.3c-0.7-0.1-1.3-0.1-1.3-0.7
	c0-0.5,0.2-1,0.3-1.3l0.4-1.1h2.6l0.6,1.5c0.1,0.3,0.3,0.7,0.3,1c0,0.5-0.6,0.5-1.2,0.5v0.3h3.8v-0.3c-0.9-0.1-1-0.2-1.3-1.1
	l-2.5-6.8H234.8z M226.4,4.1h2c0.9,0,1.2,0.1,1.4,1.3h0.3L230,3.7h-6.2V4c1,0,1.3,0.1,1.3,1.1v5.2c0,0.7-0.1,1.1-1.3,1.1v0.3h6.6
	l0.2-1.9h-0.3c-0.3,1.4-0.8,1.5-1.6,1.5h-1.4c-0.8,0-0.8,0-0.8-0.8V7.8h1.8c0.9,0,1,0.1,1.1,1.1h0.4V6.4h-0.4c-0.1,1-0.3,1-0.9,1h-2
	V4.1z M222.5,9h-0.3c-1.1,1.6-1.5,2-2.6,2H217c-0.5,0-0.7-0.2-0.7-0.7V1.9c0-1.1,0.3-1.3,1.5-1.3h0.7V0.3H213v0.3h0.3
	c1.1,0,1.4,0.4,1.4,1.4v8.1c0,0.9-0.3,1.2-1.1,1.2H213v0.3h8.2L222.5,9z M201.4,4.7l1.1,3h-2.2L201.4,4.7z M201,3.4l0.2,0.5
	l-2.3,5.8c-0.4,1-0.5,1.3-1.5,1.5v0.3h3.1v-0.3c-0.7-0.1-1.3-0.1-1.3-0.7c0-0.5,0.2-1,0.3-1.3l0.4-1.1h2.6l0.6,1.5
	c0.1,0.3,0.3,0.7,0.3,1c0,0.5-0.6,0.5-1.2,0.5v0.3h3.8v-0.3c-0.9-0.1-1-0.2-1.3-1.1l-2.5-6.8H201z M189.7,3.7l-0.1,1.9h0.3
	c0.2-1.4,0.5-1.5,1.6-1.5h3.2l-5.6,7.1v0.5h7.1l0.1-2.4H196c-0.1,0.6-0.4,1.4-0.6,1.7c-0.2,0.2-0.4,0.2-1.1,0.2h-3.5l5.6-7.2V3.7
	H189.7z M178,3.7V4c1.3,0.1,1.4,0.2,1.4,1.2v3.6c0,0.4,0,1.2,0.3,1.7c0.7,1.3,2.4,1.4,3.1,1.4c0.9,0,2.4-0.3,3-1.4
	c0.3-0.7,0.3-1.6,0.3-2.1V5.1c0-0.7,0.1-1.1,1.3-1.1V3.7h-3.3V4c1.4,0,1.4,0.2,1.4,1.5v2.7c0,0.5,0,1.3-0.2,1.8
	c-0.4,1.1-1.6,1.3-2.3,1.3c-1.3,0-1.8-0.6-2-1c-0.3-0.5-0.3-1.1-0.3-1.7V5.3c0-0.9,0.2-1.2,1.4-1.2V3.7H178z M175.1,7.6
	c0,2.9-1.6,4-3,4c-0.7,0-1.4-0.3-1.9-0.8c-0.5-0.5-1-1.3-1-3.3c0-1.9,1-3.7,2.9-3.7C173.7,3.7,175.1,4.8,175.1,7.6 M167.8,7.6
	c0,3.1,2.4,4.3,4.4,4.3c2,0,4.4-1.2,4.4-4.3c0-2.8-2.2-4.2-4.3-4.2C170.1,3.4,167.8,4.7,167.8,7.6 M158.1,8.8l0.4,2.8h0.3
	c0.1-0.1,0.2-0.2,0.4-0.2c0.3,0,1.5,0.5,2.5,0.5c2.1,0,3.7-1.3,3.7-3.1c0-3.4-5.9-4-5.9-6.6c0-1,0.8-1.7,2-1.7
	c1.3,0,2.4,0.8,2.9,2.2h0.3l-0.3-2.3h-0.3c-0.1,0.1-0.2,0.2-0.3,0.2c-0.6,0-0.9-0.5-2.5-0.5c-1.9,0-3.2,1.1-3.2,2.6
	c0,3.2,5.9,4,5.9,6.6c0,1.4-1.3,2.2-2.5,2.2c-1.4,0-2.7-0.9-3.1-2.6H158.1z M149.8,14.3c1.2-0.5,2-1.6,2-2.7c0-0.9-0.5-1.5-1.3-1.5
	c-0.5,0-1,0.4-1,0.9c0,0.5,0.3,0.8,0.8,0.8c0.1,0,0.2,0,0.2,0c0.1,0,0.1,0,0.2,0c0.2,0,0.3,0.2,0.3,0.4c0,0.7-0.5,1.3-1.4,1.8
	L149.8,14.3z M142.6,4.7l1.1,3h-2.2L142.6,4.7z M142.1,3.4l0.2,0.5l-2.3,5.8c-0.4,1-0.5,1.3-1.5,1.5v0.3h3.1v-0.3
	c-0.7-0.1-1.3-0.1-1.3-0.7c0-0.5,0.2-1,0.3-1.3l0.4-1.1h2.6l0.6,1.5c0.1,0.3,0.3,0.7,0.3,1c0,0.5-0.6,0.5-1.2,0.5v0.3h3.8v-0.3
	c-0.9-0.1-1-0.2-1.3-1.1l-2.5-6.8H142.1z M130.3,3.7V4c0.7,0,1,0,1.4,1l2.6,6.8h0.8l2.4-6.4c0.5-1.3,0.7-1.4,1.5-1.4V3.7h-3.2V4
	c0.7,0,1.3,0,1.3,0.5c0,0.1,0,0.2-0.2,0.8l-1.8,5l-2-5.1c-0.2-0.4-0.2-0.6-0.2-0.7c0-0.5,0.7-0.5,1.3-0.5V3.7H130.3z M123.4,3.7V4
	c1.4,0,1.4,0.2,1.4,1.2v5c0,0.8-0.1,1.1-1.3,1.1v0.3h5.9l0.8-1.9h-0.3c-0.7,1.3-1.1,1.4-2.5,1.4c-0.3,0-0.9,0-1.1-0.1
	c-0.1-0.1-0.1-0.1-0.1-0.5V5.1c0-1,0.1-1,1.5-1.1V3.7H123.4z M117.7,4.7l1.1,3h-2.2L117.7,4.7z M117.3,3.4l0.2,0.5l-2.3,5.8
	c-0.4,1-0.5,1.3-1.5,1.5v0.3h3.1v-0.3c-0.7-0.1-1.3-0.1-1.3-0.7c0-0.5,0.2-1,0.3-1.3l0.4-1.1h2.6l0.6,1.5c0.1,0.3,0.3,0.7,0.3,1
	c0,0.5-0.6,0.5-1.2,0.5v0.3h3.8v-0.3c-0.9-0.1-1-0.2-1.3-1.1l-2.5-6.8H117.3z M103.8,3.7V4c0.8,0,1.3,0.1,1.3,1.1v5.1
	c0,0.8-0.1,1.1-1.3,1.1v0.3h3.4v-0.3c-1.3,0-1.5-0.1-1.5-1.3V5.1l5.9,6.5h0.4V5.1c0-0.7,0.1-1.1,1.3-1.1V3.7H110V4
	c0.1,0,0.7,0,0.8,0c0.6,0.1,0.6,0.5,0.6,1v4.6l-5.4-5.9H103.8z M97.7,4.1h2c0.9,0,1.2,0.1,1.4,1.3h0.3l-0.1-1.7h-6.2V4
	c1,0,1.3,0.1,1.3,1.1v5.2c0,0.7-0.1,1.1-1.3,1.1v0.3h6.6l0.2-1.9h-0.3c-0.3,1.4-0.8,1.5-1.6,1.5h-1.4c-0.8,0-0.8,0-0.8-0.8V7.8h1.8
	c0.9,0,1,0.1,1.1,1.1h0.4V6.4h-0.4c-0.1,1-0.3,1-0.9,1h-2V4.1z M88,0.5c0.4-0.1,0.8-0.1,1.3-0.1c2.4,0,3,1.4,3,2.8
	c0,1.8-1.3,3.2-3.3,3.2c-0.3,0-0.7-0.1-1-0.1V0.5z M88,6.7c0.5,0.1,1,0.1,1.6,0.1c2.7,0,4.4-1.3,4.4-3.5c0-1.4-0.9-3.2-4.7-3.2
	c-0.5,0-1.4,0-2.3,0.1c-0.9,0-1.8,0.1-2.3,0.1v0.3h0.9c0.6,0,0.9,0.3,0.9,1v8.6c0,0.9-0.3,1.1-1.2,1.1H85v0.3H90v-0.3h-0.6
	c-1.1,0-1.5-0.4-1.5-1.4V6.7z M76.8,14.3c1.2-0.5,2-1.6,2-2.7c0-0.9-0.5-1.5-1.3-1.5c-0.5,0-1,0.4-1,0.9c0,0.5,0.3,0.8,0.8,0.8
	c0.1,0,0.2,0,0.2,0c0.1,0,0.1,0,0.2,0c0.2,0,0.3,0.2,0.3,0.4c0,0.7-0.5,1.3-1.4,1.8L76.8,14.3z M65.6,3.7V4c0.8,0,1.3,0.1,1.3,1.1
	v5.1c0,0.8-0.1,1.1-1.3,1.1v0.3H69v-0.3c-1.3,0-1.5-0.1-1.5-1.3V5.1l5.9,6.5h0.4V5.1c0-0.7,0.1-1.1,1.3-1.1V3.7h-3.3V4
	c0.1,0,0.7,0,0.8,0c0.6,0.1,0.6,0.5,0.6,1v4.6l-5.4-5.9H65.6z M60.1,4.7l1.1,3H59L60.1,4.7z M59.7,3.4L59.9,4l-2.3,5.8
	c-0.4,1-0.5,1.3-1.5,1.5v0.3h3.1v-0.3c-0.7-0.1-1.3-0.1-1.3-0.7c0-0.5,0.2-1,0.3-1.3l0.4-1.1h2.6L62,9.7c0.1,0.3,0.3,0.7,0.3,1
	c0,0.5-0.6,0.5-1.2,0.5v0.3h3.8v-0.3c-0.9-0.1-1-0.2-1.3-1.1L61,3.4H59.7z M52.6,3.7l-2.6,6l-2.6-6h-2.6V4c1,0.1,1.2,0.1,1.1,0.9
	l-0.4,4.8c0,0.4-0.1,1.1-0.2,1.3c-0.2,0.2-0.8,0.3-1.2,0.3v0.3h3.1v-0.3c-0.7,0-1.1-0.1-1.1-0.6c0-0.1,0-0.4,0-0.5l0.5-5.5l2.9,6.9
	h0.3l3-6.9l0.3,5.1c0,0.2,0,0.6,0,0.8c0,0.6-0.5,0.6-1.3,0.7v0.3h3.8v-0.3c-1.2,0-1.2-0.3-1.3-1.4L54,5.6c0-0.4,0-0.9,0-1
	C54,4.1,54.3,4,55.1,4V3.7H52.6z M41.9,3.6h-0.3c-0.1,0.1-0.2,0.2-0.2,0.2c-0.1,0-0.5-0.2-0.5-0.2c-0.3-0.1-0.7-0.2-1.2-0.2
	c-1.1,0-2.1,0.9-2.1,2c0,0.7,0.3,1.4,1.9,2.4c1.3,0.8,2,1.3,2,2.2c0,1.1-1,1.4-1.5,1.4c-0.4,0-1.5-0.2-2-1.8h-0.4l0.2,2H38
	c0-0.1,0.1-0.2,0.3-0.2c0.1,0,0.1,0,0.2,0c0.9,0.3,1.1,0.3,1.6,0.3c1.5,0,2.4-1,2.4-2.3c0-1.3-1.1-2.1-1.6-2.4
	c-1.8-1.2-2.3-1.5-2.3-2.3c0-0.6,0.5-1.2,1.3-1.2c0.4,0,0.9,0.2,1.3,0.6c0.3,0.3,0.5,0.7,0.6,1.1h0.3L41.9,3.6z M33.6,7.6
	c0,2.9-1.6,4-3,4c-0.7,0-1.4-0.3-1.9-0.8c-0.5-0.5-1-1.3-1-3.3c0-1.9,1-3.7,2.9-3.7C32.2,3.7,33.6,4.8,33.6,7.6 M26.3,7.6
	c0,3.1,2.4,4.3,4.4,4.3c2,0,4.4-1.2,4.4-4.3c0-2.8-2.2-4.2-4.3-4.2C28.7,3.4,26.3,4.7,26.3,7.6 M15.6,0.5c0.3,0,0.6,0,0.9,0
	c2.8,0,3.6,1.3,3.6,3c0,2.2-1.3,3-3.4,3c-0.4,0-0.7,0-1.1,0V0.5z M15.6,6.8c0.3,0,0.5,0,0.9,0c0.5,0,0.8,0,1.2,0
	c0.4,0.3,1.1,0.8,1.9,1.6l1.2,1.2c1.6,1.6,2.4,2.3,5.6,2.2v-0.3c-1.4-0.1-2.5-0.8-3.6-1.8l-1.4-1.4c-0.9-0.9-1.4-1.4-2.1-1.9
	c1.5-0.4,2.4-1.6,2.4-3c0-1.9-1.5-3.2-4.9-3.2c-1.2,0-1.6,0-2.3,0.1c-0.7,0-1.9,0.1-2.3,0.1v0.3h0.4c1.1,0,1.4,0.3,1.4,1.5v7.7
	c0,1.2-0.4,1.5-1.5,1.5h-0.3v0.3h5.2v-0.3h-0.4c-1,0-1.5-0.3-1.5-1.4V6.8z"/>
<path d="M185.3,18.4c102.4,0,185.3-0.2,185.3-0.5c0-0.3-83-0.5-185.3-0.5S0,17.6,0,17.8C0,18.1,83,18.4,185.3,18.4"/>
</svg>
